<svg version="1.1" xmlns="http://www.w3.org/2000/svg" width="1664" height="512" viewBox="0 0 1664 512">
<path fill="#fff" d="M381.184 173.149c0 6.613-5.327 11.94-11.94 11.94h-22.228c-6.613 0-11.94-5.327-11.94-11.94v-22.045c0-6.613 5.327-11.94 11.94-11.94h22.228c6.613 0 11.94 5.327 11.94 11.94v22.045zM358.221 340.138c0 0-0.551 1.286-1.47 1.286s-1.47-0.551-1.47-1.286v-11.207c-0.735 1.837-1.653 4.96-2.388 7.164-1.47 4.041-1.47 4.225-1.47 4.225-0.367 0.735-0.735 1.102-1.47 1.102s-1.286-0.551-1.47-1.102l-4.041-11.574v11.207c0 0-0.551 1.286-1.47 1.286s-1.47-0.551-1.47-1.286v-14.88c0-1.102 0.918-2.021 2.021-2.021 0.918 0 1.653 0.551 2.021 1.47l4.041 11.574 4.041-11.574c0 0 1.102-1.47 2.021-1.47 1.102 0 2.021 0.918 2.021 2.021v14.88l0.551 0.184zM338.564 325.993h-3.307v14.146c0 0-0.551 1.286-1.47 1.286s-1.47-0.551-1.47-1.286v-14.146h-3.307c0 0-1.47-0.551-1.47-1.47s0.551-1.47 1.47-1.47h9.369c0 0 1.286 0.551 1.286 1.47s-0.551 1.47-1.286 1.47h0.184zM297.23 336.464c-16.717 8.267-42.069 5.327-56.031-6.613-2.756-2.204-4.96-4.96-5.695-8.45-1.47-8.083 5.879-13.778 13.962-10.839 2.756 1.102 5.511 2.755 8.083 4.225 7.349 4.592 15.248 6.797 24.066 5.327 4.409-0.735 8.45-2.388 11.022-6.246 3.49-5.144 2.388-11.389-2.939-16.901-4.225-4.409-9.553-7.349-14.88-10.103-6.43-3.307-13.043-6.246-19.473-9.921-7.165-4.041-13.043-9.553-16.166-17.269-6.613-15.982-0.551-32.333 14.697-40.783 6.981-3.858 14.697-5.511 22.78-5.695 10.839 0.367 21.126 3.123 29.944 9.737 2.204 1.653 4.225 4.042 5.878 6.429 1.837 3.123 1.837 6.429-0.367 9.553-2.388 3.123-5.511 4.776-9.369 4.042-3.49-0.735-7.164-2.021-10.288-3.858-6.246-3.674-12.86-5.511-20.208-4.593-2.388 0.367-4.96 1.102-7.164 2.204-6.981 3.858-7.899 12.675-2.021 18.738 2.572 2.572 5.511 4.776 8.818 6.43 7.716 4.409 15.798 8.267 23.514 12.493 6.981 3.858 13.226 8.635 16.901 15.983 9.185 17.82 2.939 36.925-15.064 45.927v0.184zM269.307 416.009c0 9.553-7.716 17.269-17.268 17.269h-31.965c-9.553 0-17.268-7.716-17.268-17.269v-31.965c0-9.553 7.715-17.269 17.268-17.269h31.965c9.552 0 17.268 7.716 17.268 17.269v31.965zM183.699 256.735h-44.273c-13.227 0-23.882-10.655-23.882-23.882v-44.273c0-13.226 10.655-23.882 23.882-23.882h44.273c13.226 0 23.882 10.655 23.882 23.882v44.273c0 13.226-10.655 23.882-23.882 23.882zM193.987 333.524c0 8.083-6.613 14.512-14.512 14.512h-27.005c-8.083 0-14.512-6.43-14.512-14.512v-27.005c0-8.083 6.613-14.512 14.512-14.512h27.005c8.083 0 14.512 6.43 14.512 14.512v27.005zM224.85 108.3c0-11.758 9.553-21.126 21.126-21.126h39.313c11.757 0 21.126 9.552 21.126 21.126v39.313c0 11.757-9.553 21.126-21.126 21.126h-39.314c-11.757 0-21.126-9.553-21.126-21.126v-39.314zM378.245 3.954h-252.23c-69.257 0-126.023 56.766-126.023 126.023v252.046c0 69.257 56.766 126.023 126.023 126.023h252.046c69.257 0 126.023-56.765 126.023-126.023v-252.046c0-69.257-56.765-126.023-126.023-126.023h0.184z"></path>
<path fill="#fff" d="M863.047 42.167c-49.601 0-89.281 39.314-89.281 87.996s39.681 88.731 89.282 88.731c23.698 0 45.743-9.185 61.726-24.984 3.123-2.756 5.144-6.798 5.144-11.023 0-7.899-6.797-14.697-14.88-14.697-4.409 0-8.635 2.756-11.758 5.879-9.92 10.655-24.8 15.432-40.231 15.432-29.577 0-53.643-20.208-58.97-48.315h134.841l0.551-0.367c6.429-1.47 11.941-7.532 11.941-15.431-0.735-44.825-40.966-83.219-88.547-83.219h0.184zM806.281 112.159c7.532-23.698 29.76-40.783 56.765-40.783s48.866 17.084 56.398 40.783h-113.163z"></path>
<path fill="#fff" d="M1221.642 43.458c-7.899 0-14.697 6.429-14.697 13.962v7.164c-15.799-13.962-36.557-22.596-59.338-22.596-49.601 0-89.098 39.313-89.098 87.996s39.68 88.731 89.098 88.731c22.78 0 43.355-8.635 59.338-22.596v7.165c0 7.532 6.797 13.962 14.697 13.962 7.165 0 14.513-6.429 14.513-13.962v-145.863c0-7.532-7.165-13.962-14.513-13.962zM1147.608 189.504c-33.435 0-59.521-26.086-59.521-59.337s26.086-58.969 59.521-58.969c33.435 0 59.338 26.086 59.338 58.969s-26.27 59.337-59.338 59.337z"></path>
<path fill="#fff" d="M1546.988 43.458c-7.899 0-14.88 6.429-14.88 13.962v7.164c-15.799-13.962-36.557-22.596-59.153-22.596-49.601 0-89.098 39.313-89.098 87.996s39.497 88.731 89.098 88.731c22.78 0 43.355-8.635 59.153-22.596v7.165c0 7.532 6.797 13.962 14.88 13.962 7.165 0 14.513-6.429 14.513-13.962v-145.863c0-7.532-7.165-13.962-14.513-13.962zM1472.955 189.504c-33.435 0-59.521-26.086-59.521-59.337s26.086-58.969 59.521-58.969c33.435 0 59.153 26.086 59.153 58.969s-26.086 59.337-59.153 59.337z"></path>
<path fill="#fff" d="M1048.588 42.167c-16.901 0.367-32.332 5.511-44.457 14.697-0.367-7.165-7.532-13.41-14.513-13.41-7.899 0-14.697 6.429-14.697 13.962v146.048c0 7.532 6.797 13.962 14.697 13.962 7.164 0 14.513-6.429 14.513-13.962v-88.731c0-34.169 21.31-42.436 44.457-43.171 9.002 0 16.167-7.165 16.167-15.064 0-7.164-6.797-14.33-16.167-14.33z"></path>
<path fill="#fff" d="M728.939 126.675c-10.838-5.879-22.045-11.389-32.884-17.452-4.409-2.388-8.635-5.511-12.125-9.001-8.266-8.451-6.981-20.759 2.755-26.27 2.939-1.653 6.429-2.572 9.92-3.123 10.104-1.286 19.289 1.286 28.107 6.246 4.409 2.572 9.369 4.409 14.33 5.328 5.144 1.102 9.736-1.286 13.043-5.511 3.123-4.225 3.123-9.001 0.551-13.227-2.021-3.307-4.96-6.614-8.083-9.002-12.308-9.185-26.454-13.044-41.702-13.41-11.207 0.184-21.861 2.388-31.597 7.899-21.31 11.758-29.577 34.536-20.391 56.766 4.409 10.838 12.675 18.555 22.596 24.066 8.818 4.96 18.004 9.185 27.188 13.778 7.532 3.858 14.88 7.899 20.942 14.145 7.348 7.532 8.818 16.35 4.042 23.514-3.674 5.327-9.186 7.716-15.247 8.635-12.125 2.021-23.147-1.102-33.619-7.532-3.674-2.204-7.164-4.409-11.207-5.879-11.207-4.225-21.677 3.858-19.473 15.065 0.918 4.96 4.042 8.635 7.899 11.757 19.473 16.718 54.745 20.942 78.076 9.369 25.168-12.493 33.986-39.314 20.942-64.114-5.327-10.103-13.778-16.901-23.698-22.228z"></path>
<path fill="#fff" d="M1341.051 126.675c-10.839-5.879-22.045-11.389-32.883-17.452-4.409-2.388-8.634-5.511-12.124-9.001-8.266-8.451-6.981-20.759 2.755-26.27 2.939-1.653 6.429-2.572 9.92-3.123 10.103-1.286 19.289 1.286 28.107 6.246 4.409 2.572 9.369 4.409 14.33 5.328 5.144 1.102 9.736-1.286 13.043-5.511 3.123-4.225 3.123-9.001 0.551-13.227-2.021-3.307-4.96-6.614-8.083-9.002-12.309-9.185-26.454-13.044-41.701-13.41-11.207 0.184-21.861 2.388-31.782 7.899-21.31 11.758-29.577 34.536-20.391 56.766 4.409 10.838 12.493 18.555 22.596 24.066 8.818 4.96 18.004 9.185 27.005 13.778 7.532 3.858 14.88 7.899 20.943 14.145 7.349 7.532 8.818 16.35 4.042 23.514-3.674 5.327-9.186 7.716-15.247 8.635-12.124 2.021-23.147-1.102-33.619-7.532-3.674-2.204-7.165-4.409-11.207-5.879-11.207-4.225-21.494 3.858-19.473 15.065 0.918 4.96 4.042 8.635 7.899 11.757 19.473 16.718 54.745 20.942 78.075 9.369 25.168-12.493 33.802-39.314 20.943-64.114-5.328-10.103-13.778-16.901-23.698-22.228z"></path>
<path fill="#fff" d="M781.848 445.945c2.755-5.511 7.899-10.288 13.962-10.288 7.532 0 14.697 7.164 14.697 14.697 0 1.653-0.367 3.49-1.102 5.144-13.41 29.76-43.722 48.499-78.076 48.499-49.050 0-88.363-39.313-88.363-88.363s39.313-87.628 88.363-87.628c28.658 0 53.275 15.615 70.543 35.822 2.388 3.123 4.409 6.43 4.409 10.288 0 7.532-7.164 14.697-14.697 14.697-5.144 0-9.92-3.123-12.676-7.532-9.92-15.062-27.923-24.249-47.764-24.249-33.067 0-58.97 25.903-58.97 58.603s25.903 58.969 58.97 58.969c21.494 0 42.252-10.839 50.519-28.658z"></path>
<path fill="#fff" d="M907.687 357.769c-21.861 0.367-41.883 13.226-41.883 40.966v90.017c0 7.532-7.167 13.962-14.331 13.962-7.899 0-14.697-6.43-14.697-13.962v-145.312c0-7.532 6.797-13.962 14.697-13.962s14.331 6.063 14.331 15.064v6.063c13.962-13.043 28.289-21.126 44.088-21.126s22.596 8.45 22.596 15.615c0 5.878-3.674 12.675-13.962 12.675h-10.471z"></path>
<path fill="#fff" d="M963.167 402.789h115.001c-5.879-26.27-29.025-45.743-57.317-45.743s-51.805 19.473-57.683 45.743zM932.488 415.832c0-48.499 39.313-87.628 88.363-87.628s86.893 38.211 87.628 82.851c0 8.45-6.429 15.064-13.594 15.615h-132.452c5.144 27.923 29.025 48.131 58.418 48.131 15.248 0 29.944-4.776 39.865-15.432 3.123-3.123 7.165-5.878 11.573-5.878 7.899 0 14.697 6.797 14.697 14.697 0 4.041-2.021 8.267-5.144 10.839-15.615 15.615-37.476 24.984-60.99 24.984-49.050 0-88.363-39.313-88.363-88.363v0.184z"></path>
<path fill="#fff" d="M1213.559 474.608c32.699 0 58.602-25.903 58.602-58.969s-25.903-58.603-58.602-58.603c-32.699 0-59.153 25.903-59.153 58.603s25.903 58.969 59.153 58.969zM1272.161 481.404c-15.247 13.962-36.19 22.596-58.602 22.596-49.050 0-88.363-39.313-88.363-88.363s39.313-87.628 88.363-87.628c22.412 0 43.355 8.45 58.602 22.596v-75.32c0-7.532 6.797-13.962 14.697-13.962 7.165 0 14.33 6.43 14.33 13.962v213.467c0 7.532-7.165 13.962-14.33 13.962-7.899 0-14.697-6.43-14.697-13.962v-7.349z"></path>
<path fill="#fff" d="M1342.888 278.221c0-7.716 6.613-15.248 15.247-15.248 7.716 0 14.33 7.716 14.33 15.248 0 8.635-6.613 15.248-14.33 15.248-8.634 0-15.247-6.613-15.247-15.248zM1342.888 331.68c0-7.716 6.613-15.248 15.247-15.248 7.716 0 14.33 6.613 14.33 15.248v155.416c0 7.716-7.716 15.248-14.33 15.248-7.716 0-15.247-6.613-15.247-15.248v-155.416z"></path>
<path fill="#fff" d="M1579.87 325.998c47.029 0 84.138 39.865 84.138 88.546s-38.027 89.465-84.138 89.465c-46.11 0-85.056-39.865-85.056-89.465s37.109-88.546 85.056-88.546zM1579.87 474.25c31.598 0 56.031-26.27 56.031-59.704s-25.351-59.704-56.031-59.704c-30.679 0-56.949 26.27-56.949 59.704s24.433 59.704 56.949 59.704z"></path>
<path fill="#fff" d="M1453.112 299.908v13.226c0 7.899 5.511 14.329 12.309 14.329h1.837c6.797 0 12.309 6.43 12.309 14.329s-5.511 14.329-12.309 14.329h-1.837c-6.797 0-12.309 6.43-12.309 14.329v82.3c0 6.613 1.102 11.389 3.491 14.329 2.205 2.939 6.246 4.409 12.124 4.409 3.858 0 7.899-0.551 11.757-1.653v18.37c0 7.164-4.592 13.226-10.655 14.329-4.042 0.735-7.899 1.102-11.573 1.102-25.903 0-38.946-16.534-38.946-49.417v-83.77c0-7.899-5.511-14.329-12.309-14.329s-12.309-6.43-12.309-14.329c0-7.899 5.511-14.329 12.309-14.329s12.309-6.43 12.309-14.329v-13.226c0-7.899 5.511-14.329 12.309-14.329h9.186c6.797 0 12.309 6.43 12.309 14.329z"></path>
<path fill="#fff" d="M1037.016 276.581c3.858-5.878 10.287-9.553 17.452-9.553h33.619l-38.762 42.436c-3.858 4.225-9.553 6.797-15.247 6.797 0 0-20.024 2.204-22.412 0-8.818-7.716 25.535-39.68 25.535-39.68h-0.184z"></path>
</svg>
