<svg width="32" height="43" viewBox="0 0 32 43" fill="none" xmlns="http://www.w3.org/2000/svg">
  <path fill-rule="evenodd" clip-rule="evenodd" d="M26.2973 31.5344C26.2028 31.5344 26.1256 31.4621 26.1256 31.3729V29.6697H25.7337C25.6418 29.6697 25.5674 29.5953 25.5674 29.5035C25.5674 29.4078 25.6383 29.3359 25.7337 29.3359H26.8672C26.9621 29.3359 27.033 29.4078 27.033 29.5035C27.033 29.5953 26.9586 29.6697 26.8672 29.6697H26.4694V31.3729C26.4694 31.4651 26.3959 31.5344 26.2973 31.5344Z" fill="#E80070"/>
  <path fill-rule="evenodd" clip-rule="evenodd" d="M28.2562 31.5344C28.1639 31.5344 28.1094 31.4678 28.0899 31.4054L27.6131 30.0215V31.371C27.6131 31.4626 27.5408 31.531 27.4454 31.531C27.3531 31.531 27.2773 31.4591 27.2773 31.371V29.5858C27.2773 29.4533 27.3953 29.3359 27.5303 29.3359C27.637 29.3359 27.7372 29.4116 27.7724 29.52L28.2562 30.9164L28.7343 29.5191C28.7696 29.4116 28.8701 29.3359 28.979 29.3359C29.1135 29.3359 29.2315 29.4533 29.2315 29.5858V31.371C29.2315 31.4626 29.1593 31.531 29.0639 31.531C28.9712 31.531 28.8963 31.4591 28.8963 31.371V30.0245C28.8166 30.2545 28.6938 30.6158 28.6006 30.8867C28.4321 31.38 28.4256 31.4002 28.4225 31.4054C28.3846 31.4901 28.3285 31.5344 28.2562 31.5344Z" fill="#E80070"/>
  <path fill-rule="evenodd" clip-rule="evenodd" d="M20.4693 10.7633H15.728C14.317 10.7633 13.1758 9.62034 13.1758 8.21158V3.46983C13.1758 2.06193 14.317 0.918945 15.728 0.918945H20.4693C21.8785 0.918945 23.0202 2.06193 23.0202 3.46983V8.21158C23.0202 9.62034 21.8785 10.7633 20.4693 10.7633Z" fill="#E80070"/>
  <path fill-rule="evenodd" clip-rule="evenodd" d="M8.20372 21.3413H2.87007C1.28543 21.3413 0 20.0593 0 18.4716V13.1371C0 11.5529 1.28543 10.2666 2.87007 10.2666H8.20372C9.78923 10.2666 11.0747 11.5529 11.0747 13.1371V18.4716C11.0747 20.0593 9.78923 21.3413 8.20372 21.3413Z" fill="#E80070"/>
  <path fill-rule="evenodd" clip-rule="evenodd" d="M7.69579 32.3457H4.43836C3.46994 32.3457 2.68262 31.5619 2.68262 30.5913V27.3347C2.68262 26.3633 3.46994 25.5781 4.43836 25.5781H7.69579C8.66464 25.5781 9.45066 26.3633 9.45066 27.3347V30.5913C9.45066 31.5619 8.66464 32.3457 7.69579 32.3457Z" fill="#E80070"/>
  <path fill-rule="evenodd" clip-rule="evenodd" d="M16.4427 42.5915H12.5903C11.446 42.5915 10.5176 41.6652 10.5176 40.5183V36.6655C10.5176 35.5186 11.446 34.5928 12.5903 34.5928H16.4427C17.5879 34.5928 18.5159 35.5186 18.5159 36.6655V40.5183C18.5159 41.6652 17.5879 42.5915 16.4427 42.5915Z" fill="#E80070"/>
  <path fill-rule="evenodd" clip-rule="evenodd" d="M30.5593 12.6828H27.8903C27.0974 12.6828 26.4551 12.0388 26.4551 11.248V8.58293C26.4551 7.78952 27.0974 7.14551 27.8903 7.14551H30.5593C31.3514 7.14551 31.9928 7.78952 31.9928 8.58293V11.248C31.9928 12.0388 31.3514 12.6828 30.5593 12.6828Z" fill="#E80070"/>
  <path fill-rule="evenodd" clip-rule="evenodd" d="M21.648 23.477C20.707 22.9633 19.7399 22.4912 18.8049 21.9697C18.4253 21.7582 18.0562 21.4998 17.7535 21.1928C17.0348 20.4663 17.1534 19.4006 17.9919 18.932C18.2477 18.7896 18.5543 18.7044 18.8461 18.6649C19.7169 18.5477 20.5111 18.7787 21.2724 19.2104C21.6528 19.4262 22.0827 19.5864 22.5114 19.6768C22.9591 19.7706 23.3517 19.5652 23.6292 19.1943C23.9001 18.8295 23.9001 18.417 23.6739 18.0509C23.4928 17.7577 23.2518 17.4759 22.9756 17.2683C21.9138 16.4749 20.6874 16.1427 19.3729 16.1045C18.4075 16.1214 17.4886 16.3186 16.6379 16.7902C14.8044 17.8073 14.0888 19.7784 14.8765 21.6974C15.2613 22.6315 15.9635 23.2964 16.829 23.7793C17.592 24.2057 18.3867 24.5749 19.1688 24.9687C19.8219 25.2983 20.4599 25.6544 20.9728 26.1903C21.6072 26.8487 21.7405 27.6026 21.3228 28.2201C21.0101 28.6835 20.5354 28.8828 20.003 28.9692C18.953 29.1377 18.0002 28.8737 17.106 28.3265C16.796 28.1363 16.4798 27.94 16.1424 27.8132C15.1744 27.4484 14.2772 28.1523 14.4605 29.1173C14.543 29.545 14.8149 29.8629 15.1366 30.1387C16.8155 31.583 19.861 31.9439 21.8786 30.9399C24.0487 29.8594 24.8056 27.5509 23.6882 25.4021C23.2348 24.5275 22.4922 23.9413 21.648 23.477Z" fill="#E80070"/>
</svg>
